# xmcd CD database file
#
# Track frame offsets:
#	150
#	20739
#	45633
#
# Disc length: 866 seconds
#
# Revision: 0
# Processed by: cddbd v1.5PL3 Copyright (c) Steve Scherf et al.
# Submitted via: CDex 1.50
#
DISCID=1f036003
DTITLE=The Gospellers - Right on, Babe
DYEAR=2003
DGENRE=JPop
TTITLE0=Right on, Babe
TTITLE1=Full of Love
TTITLE2=旅の途中で
EXTD=YEAR: 2003
EXTT0=
EXTT1=
EXTT2=
PLAYORDER=
